<svg xmlns="http://www.w3.org/2000/svg" width="469" height="262" fill="none"><path fill="#BFBFBF" d="M93 30v22l-10 1-7 4c-1 2-2 4-1 8l3 29c1 8 0 14-3 18-2 5-6 8-11 11l-17 5 18 5c5 3 8 6 11 11 2 4 3 10 2 18l-3 29c-1 4 0 6 1 8l7 4 10 1v22l-23-2c-6-1-12-3-15-6-4-3-7-7-8-12-2-4-2-10-1-17l3-28c0-6-1-10-3-12-2-3-6-5-10-6-4-2-9-2-15-2v-26l15-1c4-2 8-4 10-7 2-2 3-6 3-11l-3-29c-1-7-1-13 1-17 1-5 4-9 7-12 4-3 9-5 16-6l23-2ZM376 30l23 2c7 1 12 3 15 6 4 3 7 7 8 12 2 4 2 10 2 17l-3 29c-1 5 0 9 2 11 2 3 6 5 10 7l15 1v26c-6 0-11 0-15 2-4 1-8 3-10 6-2 2-3 6-2 12l3 28c0 7 0 13-2 17-1 5-4 9-7 12-4 3-9 5-16 6l-23 2v-22l10-1 7-4c1-2 2-4 1-8l-3-29c-1-8 0-14 3-18 2-5 6-8 11-11l17-5-18-5c-5-3-8-6-11-11-2-4-3-10-2-18l3-29c1-4 0-6-1-8l-7-4-10-1V30Z"/><circle cx="160" cy="104" r="40" fill="#BFBFBF"/><circle cx="309" cy="104" r="40" fill="#BFBFBF"/><path stroke="#BFBFBF" stroke-width="27" d="M197 185h75"/></svg>